<svg width="1200" height="400" viewBox="0 0 1200 400" fill="none" xmlns="http://www.w3.org/2000/svg">
  <defs>
    <linearGradient id="g1" x1="0" y1="0" x2="1" y2="1">
      <stop offset="0" stop-color="#0B69A3" stop-opacity="0.10"/>
      <stop offset="1" stop-color="#0B69A3" stop-opacity="0.02"/>
    </linearGradient>
    <linearGradient id="g2" x1="0" y1="0" x2="1" y2="0">
      <stop offset="0" stop-color="#0B69A3" stop-opacity="0.18"/>
      <stop offset="1" stop-color="#0B69A3" stop-opacity="0.04"/>
    </linearGradient>
  </defs>
  <rect x="0" y="0" width="1200" height="400" rx="28" fill="url(#g1)"/>
  <circle cx="980" cy="120" r="140" fill="url(#g2)"/>
  <circle cx="1020" cy="160" r="90" fill="url(#g2)"/>
  <circle cx="880" cy="220" r="120" fill="url(#g2)"/>
  <path d="M120 290 C240 220, 320 340, 440 270 C560 200, 640 320, 760 250 C880 180, 980 280, 1080 230" stroke="#0B69A3" stroke-opacity="0.18" stroke-width="3" fill="none"/>
  <path d="M120 320 C240 250, 320 370, 440 300 C560 230, 640 350, 760 280 C880 210, 980 310, 1080 260" stroke="#0B69A3" stroke-opacity="0.10" stroke-width="3" fill="none"/>
</svg>

